<?xml version="1.0" encoding="UTF-8"?>
<svg version="1.1" xmlns="http://www.w3.org/2000/svg" width="660" height="569">
<path d="M0 0 C0.79862251 0.00291284 1.59724501 0.00582568 2.4200682 0.00882679 C3.68316752 0.00754515 3.68316752 0.00754515 4.971784 0.00623763 C7.81552334 0.00458024 10.65920471 0.0101084 13.50293869 0.01555592 C15.53261702 0.01583776 17.56229545 0.01568012 19.59197372 0.01511341 C25.12067266 0.01482532 30.6493501 0.02072391 36.17804402 0.02768737 C41.94897441 0.03391899 47.71990523 0.03452455 53.49083847 0.03571278 C64.42726064 0.03882666 75.36367288 0.04704082 86.30009067 0.05706227 C98.74727595 0.06822164 111.1944617 0.07373341 123.64165074 0.0787577 C149.25419169 0.08922339 174.86672382 0.10682393 200.47925705 0.12908131 C199.16275224 3.54349683 197.85279459 6.22730637 195.57300705 9.09783131 C194.9989714 9.82727955 194.42493576 10.55672779 193.83350509 11.30828053 C193.22160324 12.07414479 192.60970138 12.84000904 191.97925705 13.62908131 C190.70425095 15.2460587 189.42951287 16.86324745 188.1550383 18.48064381 C187.52807052 19.27245045 186.90110275 20.06425709 186.25513595 20.88005787 C183.86815575 23.90299734 181.512574 26.94915302 179.16675705 30.00408131 C178.07650041 31.41879509 176.98439899 32.83235772 175.86661667 34.2254253 C174.34550398 36.24313244 174.34550398 36.24313244 172.78989547 39.04323536 C167.47592433 47.49148267 167.47592433 47.49148267 162.16164535 49.18849903 C158.2020864 49.51520211 154.34154295 49.48292873 150.3816008 49.30095631 C148.93722011 49.27853277 147.4927472 49.26147102 146.04824203 49.24950367 C142.27277907 49.20399887 138.50298839 49.08645542 134.72974533 48.95305592 C130.86903522 48.82958166 127.00739426 48.7753442 123.14527267 48.71501881 C115.58736657 48.58688538 108.03411073 48.3825205 100.47925705 48.12908131 C100.48063974 49.16359881 100.48063974 49.16359881 100.48205036 50.21901566 C100.50410506 66.97652843 100.52066834 83.73403663 100.53106922 100.49156052 C100.53623229 108.5952674 100.54327521 116.69896462 100.5546965 124.80266529 C100.56464299 131.86330253 100.57111039 138.92393277 100.57334554 145.98457682 C100.57465271 149.72542589 100.57773894 153.46625492 100.5849871 157.20709759 C100.59300028 161.37633244 100.59324821 165.54553215 100.59278244 169.71477467 C100.59637771 170.96417835 100.59997299 172.21358204 100.60367721 173.50084645 C100.60230255 174.62971775 100.60092788 175.75858906 100.59951156 176.92166859 C100.60089425 178.40252902 100.60089425 178.40252902 100.60230488 179.91330582 C100.47925705 182.12908131 100.47925705 182.12908131 99.47925705 183.12908131 C80.99925705 183.12908131 62.51925705 183.12908131 43.47925705 183.12908131 C43.47925705 138.57908131 43.47925705 94.02908131 43.47925705 48.12908131 C15.42925705 48.12908131 -12.62074295 48.12908131 -41.52074295 48.12908131 C-40.10596304 45.29952148 -38.93909087 43.18788524 -37.0871492 40.73064381 C-36.36954422 39.77508595 -36.36954422 39.77508595 -35.63744217 38.80022389 C-35.12455643 38.12499684 -34.61167069 37.44976979 -34.08324295 36.75408131 C-33.28297684 35.69386769 -33.28297684 35.69386769 -32.46654373 34.61223561 C-28.11596353 28.86779891 -23.67808282 23.19495553 -19.20824295 17.54314381 C-15.96483121 13.43656603 -12.78140114 9.28433398 -9.60423905 5.12639576 C-6.21272451 0.69590675 -5.68678009 0.0157353 0 0 Z " fill="#FC0C1A" transform="translate(296.52074295282364,154.8709186911583)"/>
<path d="M0 0 C18.48 0 36.96 0 56 0 C56 60.39 56 120.78 56 183 C37.52 183 19.04 183 0 183 C-1.65668387 181.34331613 -1.12460829 179.35172755 -1.13374341 177.13824701 C-1.13151268 176.43758033 -1.12928196 175.73691365 -1.12698364 175.01501465 C-1.12854363 174.27574281 -1.13010362 173.53647098 -1.13171089 172.77479696 C-1.1357236 170.27888127 -1.13253021 167.7830256 -1.12939453 165.28710938 C-1.13074845 163.50535547 -1.13252833 161.72360185 -1.13470459 159.94184875 C-1.13928002 155.08868288 -1.13748892 150.23553817 -1.1343255 145.3823719 C-1.13180246 140.31525742 -1.13413928 135.24814482 -1.13571167 130.18103027 C-1.13753353 121.66999993 -1.13512663 113.15897825 -1.13037109 104.64794922 C-1.12492844 94.79306325 -1.12669109 84.93819797 -1.1321975 75.08331251 C-1.13672816 66.63833422 -1.13737941 58.19336216 -1.13475883 49.74838305 C-1.1331958 44.69746086 -1.133003 39.6465484 -1.13629532 34.59562683 C-1.13917336 29.84823317 -1.13719959 25.10086632 -1.13140106 20.35347557 C-1.1300731 18.6058831 -1.13046819 16.85828839 -1.13266373 15.11069679 C-1.13537383 12.73542867 -1.13199585 10.36024783 -1.12698364 7.98498535 C-1.12921436 7.28431867 -1.13144509 6.58365199 -1.13374341 5.86175299 C-1.11414987 1.11414987 -1.11414987 1.11414987 0 0 Z " fill="#000000" transform="translate(181,155)"/>
</svg>
