<?xml version="1.0" encoding="UTF-8"?>
<svg version="1.1" xmlns="http://www.w3.org/2000/svg" width="1280" height="720">
<path d="M0 0 C422.4 0 844.8 0 1280 0 C1280 237.6 1280 475.2 1280 720 C857.6 720 435.2 720 0 720 C0 482.4 0 244.8 0 0 Z " fill="#FEFEFE" transform="translate(0,0)"/>
<path d="M0 0 C0.95989334 -0.00807175 1.91978668 -0.01614349 2.9087677 -0.02445984 C4.93842808 -0.03823435 6.96811098 -0.04898588 8.99780273 -0.05688477 C11.03075167 -0.06831035 13.06367291 -0.08860906 15.09643555 -0.1184082 C37.63038963 -0.44759924 63.33283374 1.22614529 80.89453125 17.23828125 C81.56742188 17.80933594 82.2403125 18.38039063 82.93359375 18.96875 C92.85849806 27.98294212 97.48051573 40.77021085 98.2109375 53.94921875 C98.74985987 69.99405862 95.75118527 85.09152514 85.39453125 97.86328125 C71.38316747 112.79992377 48.52402503 118.41218868 28.65087891 119.39941406 C24.94030664 119.44603338 21.23038189 119.48498356 17.51953125 119.48828125 C16.83834229 119.48895599 16.15715332 119.48963074 15.45532227 119.49032593 C-10.76219168 119.44936585 -37.87386545 117.49521214 -57.87890625 98.6015625 C-68.35239528 87.4849645 -71.46249888 74.78993702 -71.41796875 59.92578125 C-71.43408203 58.86166016 -71.45019531 57.79753906 -71.46679688 56.70117188 C-71.47573055 42.05888046 -66.89684464 29.28973338 -56.734375 18.625 C-47.38176872 10.13400084 -37.02431568 6.46161721 -25.10546875 3.23828125 C-23.95820312 2.88507813 -22.8109375 2.531875 -21.62890625 2.16796875 C-14.46862056 0.27866942 -7.36248191 0.06049457 0 0 Z " fill="#FC0E1C" transform="translate(757.10546875,293.76171875)"/>
<path d="M0 0 C2.46720622 0.00560579 4.93441581 0.00987123 7.40162659 0.01286316 C13.84759996 0.0242345 20.29336564 0.05363428 26.73925781 0.0869751 C33.33590894 0.11784342 39.93259411 0.1314041 46.52929688 0.14648438 C59.43758783 0.1785122 72.34573591 0.22902466 85.25390625 0.29296875 C84.31982495 1.71198144 83.38330785 3.12939088 82.44580078 4.54614258 C81.9245462 5.33563797 81.40329163 6.12513336 80.86624146 6.93855286 C78.46970457 10.43810091 75.82117592 13.70636587 73.12890625 16.98046875 C72.10306466 18.23240893 71.07958546 19.48628896 70.05859375 20.7421875 C69.61499512 21.28190186 69.17139648 21.82161621 68.71435547 22.37768555 C67.08755588 24.39282945 67.08755588 24.39282945 65.68519592 27.36734009 C63.25390625 30.29296875 63.25390625 30.29296875 59.50367737 31.03227234 C57.96693751 31.05821066 56.42942917 31.0511953 54.89282227 31.01831055 C54.05170898 31.0241214 53.2105957 31.02993225 52.34399414 31.03591919 C49.56456658 31.04872367 46.78710429 31.02000194 44.0078125 30.9921875 C42.07493803 30.99582094 40.1420671 31.00252188 38.20921326 31.01216125 C33.11950112 31.03124929 28.03047019 31.01718334 22.9407959 30.99365234 C14.79793579 30.95929294 6.65524596 30.96505355 -1.48762703 30.98978615 C-4.33121577 30.9921575 -7.17417549 30.97434728 -10.01768494 30.95451355 C-11.76366174 30.95426538 -13.50963879 30.95466317 -15.25561523 30.95581055 C-16.04486893 30.94494919 -16.83412262 30.93408783 -17.64729309 30.92289734 C-22.17461181 30.94677869 -25.1770134 31.41862341 -28.74609375 34.29296875 C-29.45822075 36.48799502 -29.45822075 36.48799502 -29.24609375 38.85546875 C-29.23578125 39.64050781 -29.22546875 40.42554688 -29.21484375 41.234375 C-28.90545867 43.68370742 -28.90545867 43.68370742 -25.74609375 45.29296875 C-23.27285226 45.49519203 -20.90979395 45.58354985 -18.43579102 45.58007812 C-17.32287941 45.59032768 -17.32287941 45.59032768 -16.18748474 45.6007843 C-14.57515557 45.61437584 -12.96278323 45.62342686 -11.35040474 45.62849426 C-8.78854131 45.63679639 -6.22703216 45.65731971 -3.66526794 45.68103027 C1.78690385 45.72928403 7.2391119 45.76212822 12.69140625 45.79296875 C18.98171376 45.82877642 25.27185173 45.87107103 31.56199837 45.9289093 C34.06767794 45.94876453 36.57322297 45.95725811 39.07896423 45.96520996 C54.04424148 46.06354217 69.40575728 46.85515932 80.84765625 57.8203125 C88.01159843 65.56369118 88.87424972 73.33801134 88.5390625 83.51171875 C87.87535537 92.31265707 83.59085039 100.39243309 77.19140625 106.48046875 C61.43227379 118.9451274 39.3277794 116.56867691 20.51171875 116.48828125 C17.93098053 116.48454512 15.35024088 116.48170099 12.76950073 116.47970581 C6.70671453 116.47288934 0.64401314 116.45717963 -5.41874135 116.43700683 C-12.33065321 116.4145164 -19.24256891 116.40362163 -26.15450835 116.39361596 C-40.35174273 116.37280878 -54.54891561 116.33771567 -68.74609375 116.29296875 C-67.80633486 114.86891977 -66.86462666 113.44615708 -65.92211914 112.02392578 C-65.13581871 110.83526413 -65.13581871 110.83526413 -64.33363342 109.62258911 C-62.10065819 106.34583033 -59.67020537 103.25406305 -57.18359375 100.16796875 C-56.26403867 99.02080103 -55.34606465 97.87236414 -54.4296875 96.72265625 C-53.83498657 95.98378174 -53.83498657 95.98378174 -53.22827148 95.22998047 C-51.74517141 93.39555522 -51.74517141 93.39555522 -50.82812595 91.60204887 C-47.9371144 86.688692 -47.9371144 86.688692 -44.80321407 85.64743614 C-42.38740672 85.4117035 -40.0556874 85.39570515 -37.62890625 85.45410156 C-36.71937195 85.44814468 -35.80983765 85.44218781 -34.8727417 85.43605042 C-31.87126394 85.42395508 -28.87235054 85.46042201 -25.87109375 85.49609375 C-23.78270905 85.49432614 -21.69432461 85.48904747 -19.60595703 85.48040771 C-14.11008923 85.46514577 -8.61513954 85.48901032 -3.11938477 85.52362061 C5.67675906 85.57407254 14.4728625 85.57246252 23.269104 85.55721283 C26.34095868 85.5585769 29.41214327 85.58093283 32.48388672 85.60577393 C34.36816304 85.60921818 36.25244055 85.61207756 38.13671875 85.61425781 C38.98985657 85.62669022 39.84299438 85.63912262 40.72198486 85.65193176 C45.37841352 85.63766625 48.48683137 85.35526394 52.25390625 82.29296875 C52.99992187 80.36766926 52.99992187 80.36766926 52.81640625 78.29296875 C52.81769531 77.61234375 52.81898438 76.93171875 52.8203125 76.23046875 C51.99357459 73.40245493 50.7908913 72.76593548 48.25390625 71.29296875 C44.85793414 70.83305421 44.85793414 70.83305421 40.99780273 70.89233398 C40.27361649 70.88535492 39.54943024 70.87837585 38.80329895 70.8711853 C36.41041417 70.8512032 34.01796085 70.85170864 31.625 70.8515625 C29.95311835 70.83978295 28.2812472 70.82641732 26.60939026 70.8115387 C22.20283829 70.7753286 17.79637909 70.75515434 13.38970947 70.73999023 C6.36221955 70.71519238 -0.66506477 70.67505845 -7.69236565 70.61808968 C-10.13330401 70.60192148 -12.57404491 70.59799643 -15.01502991 70.59507751 C-28.97072399 70.52901176 -46.16500467 69.76824694 -56.74609375 59.29296875 C-62.45699629 52.15434057 -65.13276794 45.63956606 -65.05859375 36.41796875 C-65.0544043 35.70979004 -65.05021484 35.00161133 -65.04589844 34.27197266 C-64.85746907 25.57014407 -62.14028868 18.8569394 -56.02734375 12.5078125 C-40.79534091 -1.72685682 -19.44642129 -0.13071558 0 0 Z " fill="#FC101E" transform="translate(584.74609375,294.70703125)"/>
<path d="M0 0 C44.22 0 88.44 0 134 0 C132.43623296 3.12753408 131.07417615 5.35648238 128.953125 8.046875 C128.355 8.81 127.756875 9.573125 127.140625 10.359375 C126.51671875 11.14828125 125.8928125 11.9371875 125.25 12.75 C124.02535519 14.30675188 122.80139152 15.86403985 121.578125 17.421875 C121.03575195 18.10862305 120.49337891 18.79537109 119.93457031 19.50292969 C117.99324493 21.81980408 117.99324493 21.81980408 117.04586792 24.03955078 C115.6035717 26.69474147 114.44692525 28.19661122 112 30 C106.26600327 31.15125399 100.61311892 30.93162111 94.7890625 30.78125 C93.09372634 30.76631797 91.39835552 30.75493548 89.70297241 30.74694824 C85.25343517 30.7164885 80.80600703 30.63798301 76.3572998 30.54931641 C71.81270886 30.46728921 67.26777503 30.43090103 62.72265625 30.390625 C53.81403116 30.30497782 44.9075214 30.16433375 36 30 C36 34.62 36 39.24 36 44 C66.36 44 96.72 44 128 44 C124.33558139 49.49662791 121.08114114 54.31866211 116.875 59.25 C113.39638089 63.30425167 113.39638089 63.30425167 110.29351807 67.639328 C108 70 108 70 104.7855835 70.60127258 C102.88029877 70.584618 102.88029877 70.584618 100.93652344 70.56762695 C100.23368225 70.56835709 99.53084106 70.56908722 98.80670166 70.56983948 C96.49013312 70.5663638 94.17559092 70.52750908 91.859375 70.48828125 C90.25084532 70.47895292 88.64230142 70.4718369 87.03375244 70.46684265 C82.80505992 70.44777407 78.57722944 70.39867551 74.34887695 70.34332275 C70.03218243 70.29212664 65.71534827 70.2693279 61.3984375 70.24414062 C52.93185244 70.19055542 44.46613285 70.10262171 36 70 C36 75.28 36 80.56 36 86 C68.34 86 100.68 86 134 86 C131.69218103 90.61563794 128.8581034 94.37076285 125.65986633 98.40768433 C123.86051187 100.74068452 122.37746974 103.06031566 120.99845886 105.66140747 C118.15593402 110.61988235 115.16228425 115.02120953 109.49261856 116.7760849 C101.85273321 118.00075753 94.13027494 117.60691057 86.42578125 117.3671875 C84.21306286 117.34657574 82.00027606 117.33231032 79.78747559 117.32446289 C71.62810212 117.25138082 63.47019482 117.05591869 55.3125 116.875 C37.059375 116.58625 18.80625 116.2975 0 116 C0 77.72 0 39.44 0 0 Z " fill="#020202" transform="translate(375,295)"/>
<path d="M0 0 C1.01968872 -0.00016617 2.03937744 -0.00033234 3.08996582 -0.00050354 C4.24967896 -0.00988449 5.40939209 -0.01926544 6.60424805 -0.02893066 C7.86346069 -0.01769669 9.12267334 -0.00646271 10.42004395 0.00511169 C11.72469604 0.00365646 13.02934814 0.00220123 14.37353516 0.0007019 C17.14786783 -0.00068503 19.92168562 0.0118969 22.69592285 0.03465271 C26.1935423 0.06260001 29.69028661 0.0601342 33.1879673 0.04797268 C58.28242247 -0.02221836 81.70859611 0.67595752 102.45129395 16.50120544 C103.48254395 17.24370544 104.51379395 17.98620544 105.57629395 18.75120544 C114.493299 27.28051462 121.19071065 39.05021517 121.8223877 51.50511169 C122.20983425 69.0045196 119.08127443 81.88353466 107.01379395 95.18870544 C106.16816895 95.95183044 105.32254395 96.71495544 104.45129395 97.50120544 C103.92535645 98.03101013 103.39941895 98.56081482 102.85754395 99.10667419 C89.25553799 112.16114178 69.19354697 116.70040161 50.85388184 116.61473083 C49.60876831 116.61494987 49.60876831 116.61494987 48.33850098 116.61517334 C45.61695671 116.61448118 42.89548239 116.60672165 40.1739502 116.59886169 C38.27823423 116.59699504 36.38251777 116.5955723 34.48680115 116.59457397 C29.51381075 116.59076832 24.54084988 116.58095479 19.56787109 116.56987 C13.5922583 116.55780842 7.6166356 116.55324434 1.6410141 116.54741669 C-7.42224644 116.53774191 -16.48544229 116.51857172 -25.54870605 116.50120544 C-25.54870605 92.74120544 -25.54870605 68.98120544 -25.54870605 44.50120544 C-13.66870605 44.50120544 -1.78870605 44.50120544 10.45129395 44.50120544 C10.45129395 58.36120544 10.45129395 72.22120544 10.45129395 86.50120544 C17.38955228 86.4269584 24.32658018 86.34390007 31.26428223 86.23875427 C33.6209867 86.20564088 35.97776789 86.17756732 38.33459473 86.1547699 C41.73580407 86.12097353 45.13631891 86.06864483 48.53723145 86.01292419 C49.57930756 86.00653427 50.62138367 86.00014435 51.69503784 85.99356079 C62.13128662 85.78704232 71.46260394 83.51297478 79.45129395 76.50120544 C83.02182699 72.2319046 85.10750236 68.11646793 85.45129395 62.50120544 C85.54410645 61.48413513 85.54410645 61.48413513 85.63879395 60.44651794 C86.03479572 53.29373585 84.26367671 47.73172251 79.5333252 42.29808044 C70.81914571 33.96948412 61.16054526 31.38661528 49.35632324 31.29588318 C48.15553886 31.28103378 48.15553886 31.28103378 46.93049622 31.2658844 C44.29553136 31.23440268 41.66054851 31.20956489 39.0255127 31.18479919 C37.19419396 31.16421815 35.36287984 31.14322137 33.53157043 31.12182617 C28.71971391 31.06672434 23.90781536 31.01726278 19.09588623 30.96897888 C14.18241654 30.91867689 9.26900761 30.86303629 4.35559082 30.80784607 C-5.27912285 30.70040997 -14.91388936 30.59893287 -24.54870605 30.50120544 C-22.48706216 27.01837894 -20.32616617 23.77193472 -17.86120605 20.55979919 C-17.16253418 19.64649841 -16.4638623 18.73319763 -15.74401855 17.79222107 C-15.01956543 16.85056091 -14.2951123 15.90890076 -13.54870605 14.93870544 C-12.11114118 13.06245307 -10.67363879 11.18615281 -9.23620605 9.30979919 C-8.60069824 8.48278503 -7.96519043 7.65577087 -7.3104248 6.80369568 C-5.54688368 4.59095861 -5.54688368 4.59095861 -4.29101562 2.38865662 C-2.54870605 0.50120544 -2.54870605 0.50120544 0 0 Z " fill="#010101" transform="translate(235.5487060546875,294.49879455566406)"/>
<path d="M0 0 C42.9 0 85.8 0 130 0 C127.18062546 4.22906181 124.3643776 8.195344 121.25 12.1875 C120.45078125 13.21230469 119.6515625 14.23710937 118.828125 15.29296875 C118.37636902 15.85184784 117.92461304 16.41072693 117.45916748 16.98654175 C115.89171243 19.05060885 115.89171243 19.05060885 114.55499268 21.73049927 C111.85006596 26.40295909 109.85456585 29.48652236 104.5010376 30.96876526 C100.15530922 31.41490201 95.82602801 31.23879899 91.46875 31.07421875 C89.86598067 31.0536746 88.26314174 31.0380296 86.66027832 31.02705383 C82.46294823 30.98526332 78.26987761 30.87742341 74.07421875 30.75531006 C69.78444039 30.64230874 65.49396606 30.59244504 61.203125 30.53710938 C52.79992061 30.41950899 44.40098255 30.22622411 36 30 C36 34.95 36 39.9 36 45 C64.71 45 93.42 45 123 45 C121.48041806 48.03916388 120.17509409 50.2390569 118.13671875 52.86328125 C117.57919922 53.58580078 117.02167969 54.30832031 116.44726562 55.05273438 C115.57618164 56.17131836 115.57618164 56.17131836 114.6875 57.3125 C113.54447583 58.78691056 112.40253514 60.26216177 111.26171875 61.73828125 C110.75600342 62.38837158 110.25028809 63.03846191 109.72924805 63.70825195 C107.99394128 65.82255066 107.99394128 65.82255066 107.21592712 67.80027771 C106.03521824 70.13361378 105.10184125 71.41644963 103 73 C97.96208951 74.01098625 92.9634831 73.81435462 87.85546875 73.68359375 C86.36048198 73.67052933 84.86546514 73.66056913 83.37043762 73.65357971 C79.4454497 73.62691883 75.5222904 73.55821879 71.59802246 73.48065186 C66.8843388 73.39627007 62.17004178 73.36428102 57.45581818 73.3234787 C50.30260908 73.25571532 43.15340768 73.12157127 36 73 C36 87.19 36 101.38 36 116 C24.12 116 12.24 116 0 116 C0 77.72 0 39.44 0 0 Z " fill="#FC0F1D" transform="translate(873,295)"/>
<path d="M0 0 C1.80830292 0.05932205 1.80830292 0.05932205 3.65313721 0.11984253 C4.94177673 0.11823624 6.23041626 0.11662994 7.55810547 0.11497498 C11.07163143 0.1118339 14.58097925 0.17622654 18.09353828 0.25328851 C21.77151077 0.32232349 25.4495924 0.32853514 29.12811279 0.34156799 C36.08446089 0.37568076 43.03889438 0.46583532 49.99440145 0.57641238 C57.91677661 0.69961071 65.83924603 0.75990492 73.7623415 0.81506217 C90.05192851 0.92986532 106.33959278 1.12318734 122.62774658 1.36862183 C119.85461623 5.5658808 116.9725586 9.58904591 113.87774658 13.55612183 C109.31530164 19.40635365 105.00116557 25.35517071 100.62774658 31.36862183 C86.76774658 31.36862183 72.90774658 31.36862183 58.62774658 31.36862183 C58.62774658 59.74862183 58.62774658 88.12862183 58.62774658 117.36862183 C46.74774658 117.36862183 34.86774658 117.36862183 22.62774658 117.36862183 C22.62774658 88.98862183 22.62774658 60.60862183 22.62774658 31.36862183 C4.80774658 31.36862183 -13.01225342 31.36862183 -31.37225342 31.36862183 C-28.55287888 27.13956002 -25.73663102 23.17327783 -22.62225342 19.18112183 C-21.82303467 18.15631714 -21.02381592 17.13151245 -20.20037842 16.07565308 C-19.75314171 15.51654897 -19.305905 14.95744486 -18.84511566 14.3813982 C-17.27024303 12.30607515 -17.27024303 12.30607515 -15.80399323 9.64425945 C-11.42390268 2.49399866 -8.42629778 0.11359592 0 0 Z " fill="#FC0F1D" transform="translate(1036.3722534179688,293.6313781738281)"/>
<path d="M0 0 C0.91323532 -0.00570007 1.82647064 -0.01140015 2.76737976 -0.01727295 C4.68760034 -0.02665862 6.60783657 -0.03323108 8.52807617 -0.03710938 C11.43111841 -0.04681449 14.33345137 -0.0778995 17.23632812 -0.109375 C43.78461977 -0.26139052 43.78461977 -0.26139052 53.13671875 8.203125 C59.86163759 16.79420881 59.82774489 25.71636992 59.13671875 36.203125 C57.91982344 43.88777097 55.14018949 49.02389823 49.01171875 53.890625 C29.80697116 62.65800977 -2.73094982 62.48555467 -22.86328125 56.203125 C-29.68545063 53.48123645 -33.68788335 50.09928031 -37.0234375 43.546875 C-40.40613445 34.10679048 -40.06690943 22.85871982 -36.25390625 13.6484375 C-32.87809804 7.71232532 -27.53561722 3.73643956 -21.0308075 1.74920654 C-14.1834047 0.02408774 -7.02086428 0.03483788 0 0 Z " fill="#FEFDFD" transform="translate(759.86328125,323.796875)"/>
<path d="M0 0 C11.88 0 23.76 0 36 0 C36 38.28 36 76.56 36 116 C24.12 116 12.24 116 0 116 C0 77.72 0 39.44 0 0 Z " fill="#030303" transform="translate(152,295)"/>
</svg>
